ply
format ascii 1.0
comment Created by Blender 2.68 (sub 0) - www.blender.org, source file: 'cylindar.blend'
element vertex 192
property float x
property float y
property float z
property float nx
property float ny
property float nz
element face 124
property list uchar uint vertex_indices
end_header
0.000000 1.000000 -1.000000 0.098017 0.995185 0.000000
0.000000 1.000000 1.000000 0.098017 0.995185 0.000000
0.195090 0.980785 1.000000 0.098017 0.995185 0.000000
0.195090 0.980785 -1.000000 0.290285 0.956940 0.000000
0.195090 0.980785 1.000000 0.290285 0.956940 0.000000
0.382683 0.923880 1.000000 0.290285 0.956940 0.000000
0.382683 0.923880 -1.000000 0.471397 0.881921 0.000000
0.382683 0.923880 1.000000 0.471397 0.881921 0.000000
0.555570 0.831470 1.000000 0.471397 0.881921 0.000000
0.555570 0.831470 -1.000000 0.634393 0.773010 0.000000
0.555570 0.831470 1.000000 0.634393 0.773010 0.000000
0.707107 0.707107 1.000000 0.634393 0.773010 0.000000
0.707107 0.707107 -1.000000 0.773010 0.634393 0.000000
0.707107 0.707107 1.000000 0.773010 0.634393 0.000000
0.831470 0.555570 1.000000 0.773010 0.634393 0.000000
0.831470 0.555570 -1.000000 0.881921 0.471397 0.000000
0.831470 0.555570 1.000000 0.881921 0.471397 0.000000
0.923880 0.382683 1.000000 0.881921 0.471397 0.000000
0.923880 0.382683 -1.000000 0.956940 0.290285 0.000000
0.923880 0.382683 1.000000 0.956940 0.290285 0.000000
0.980785 0.195090 1.000000 0.956940 0.290285 0.000000
0.980785 0.195090 -1.000000 0.995185 0.098017 0.000000
0.980785 0.195090 1.000000 0.995185 0.098017 0.000000
1.000000 0.000000 1.000000 0.995185 0.098017 0.000000
1.000000 0.000000 -1.000000 0.995185 -0.098017 0.000000
1.000000 0.000000 1.000000 0.995185 -0.098017 0.000000
0.980785 -0.195090 1.000000 0.995185 -0.098017 0.000000
0.980785 -0.195090 -1.000000 0.956940 -0.290285 0.000000
0.980785 -0.195090 1.000000 0.956940 -0.290285 0.000000
0.923880 -0.382683 -1.000000 0.956940 -0.290285 0.000000
0.923880 -0.382683 -1.000000 0.881921 -0.471396 0.000000
0.923880 -0.382683 1.000000 0.881921 -0.471396 0.000000
0.831470 -0.555570 1.000000 0.881921 -0.471396 0.000000
0.831470 -0.555570 -1.000000 0.773010 -0.634393 0.000000
0.831470 -0.555570 1.000000 0.773010 -0.634393 0.000000
0.707107 -0.707107 -1.000000 0.773010 -0.634393 0.000000
0.707107 -0.707107 -1.000000 0.634393 -0.773010 0.000000
0.707107 -0.707107 1.000000 0.634393 -0.773010 0.000000
0.555570 -0.831470 1.000000 0.634393 -0.773010 0.000000
0.555570 -0.831470 -1.000000 0.471397 -0.881921 0.000000
0.555570 -0.831470 1.000000 0.471397 -0.881921 0.000000
0.382683 -0.923880 1.000000 0.471397 -0.881921 0.000000
0.382683 -0.923880 -1.000000 0.290284 -0.956940 0.000000
0.382683 -0.923880 1.000000 0.290284 -0.956940 0.000000
0.195090 -0.980785 -1.000000 0.290284 -0.956940 0.000000
0.195090 -0.980785 -1.000000 0.098017 -0.995185 0.000000
0.195090 -0.980785 1.000000 0.098017 -0.995185 0.000000
-0.000000 -1.000000 -1.000000 0.098017 -0.995185 0.000000
-0.000000 -1.000000 -1.000000 -0.098018 -0.995185 -0.000000
-0.000000 -1.000000 1.000000 -0.098018 -0.995185 -0.000000
-0.195091 -0.980785 1.000000 -0.098018 -0.995185 -0.000000
-0.195091 -0.980785 -1.000000 -0.290285 -0.956940 -0.000000
-0.195091 -0.980785 1.000000 -0.290285 -0.956940 -0.000000
-0.382684 -0.923879 1.000000 -0.290285 -0.956940 -0.000000
-0.382684 -0.923879 -1.000000 -0.471397 -0.881921 -0.000000
-0.382684 -0.923879 1.000000 -0.471397 -0.881921 -0.000000
-0.555571 -0.831469 -1.000000 -0.471397 -0.881921 -0.000000
-0.555571 -0.831469 -1.000000 -0.634394 -0.773010 -0.000000
-0.555571 -0.831469 1.000000 -0.634394 -0.773010 -0.000000
-0.707107 -0.707106 -1.000000 -0.634394 -0.773010 -0.000000
-0.707107 -0.707106 -1.000000 -0.773011 -0.634393 -0.000000
-0.707107 -0.707106 1.000000 -0.773011 -0.634393 -0.000000
-0.831470 -0.555570 -1.000000 -0.773011 -0.634393 -0.000000
-0.831470 -0.555570 -1.000000 -0.881922 -0.471396 -0.000000
-0.831470 -0.555570 1.000000 -0.881922 -0.471396 -0.000000
-0.923880 -0.382683 1.000000 -0.881922 -0.471396 -0.000000
-0.923880 -0.382683 -1.000000 -0.956941 -0.290284 -0.000000
-0.923880 -0.382683 1.000000 -0.956941 -0.290284 -0.000000
-0.980785 -0.195089 1.000000 -0.956941 -0.290284 -0.000000
-0.980785 -0.195089 -1.000000 -0.995185 -0.098016 -0.000000
-0.980785 -0.195089 1.000000 -0.995185 -0.098016 -0.000000
-1.000000 0.000001 -1.000000 -0.995185 -0.098016 -0.000000
-1.000000 0.000001 -1.000000 -0.995185 0.098018 0.000000
-1.000000 0.000001 1.000000 -0.995185 0.098018 0.000000
-0.980785 0.195091 1.000000 -0.995185 0.098018 0.000000
-0.980785 0.195091 -1.000000 -0.956940 0.290286 0.000000
-0.980785 0.195091 1.000000 -0.956940 0.290286 0.000000
-0.923879 0.382684 1.000000 -0.956940 0.290286 0.000000
-0.923879 0.382684 -1.000000 -0.881921 0.471398 0.000000
-0.923879 0.382684 1.000000 -0.881921 0.471398 0.000000
-0.831469 0.555571 -1.000000 -0.881921 0.471398 0.000000
-0.831469 0.555571 -1.000000 -0.773010 0.634394 0.000000
-0.831469 0.555571 1.000000 -0.773010 0.634394 0.000000
-0.707106 0.707108 -1.000000 -0.773010 0.634394 0.000000
-0.707106 0.707108 -1.000000 -0.634392 0.773011 0.000000
-0.707106 0.707108 1.000000 -0.634392 0.773011 0.000000
-0.555569 0.831470 -1.000000 -0.634392 0.773011 0.000000
-0.555569 0.831470 -1.000000 -0.471395 0.881922 0.000000
-0.555569 0.831470 1.000000 -0.471395 0.881922 0.000000
-0.382682 0.923880 -1.000000 -0.471395 0.881922 0.000000
0.382683 0.923880 1.000000 0.000000 0.000000 1.000000
0.195090 0.980785 1.000000 0.000000 0.000000 1.000000
-0.195089 0.980786 1.000000 0.000000 0.000000 1.000000
-0.195089 0.980786 -1.000000 -0.098017 0.995185 0.000000
-0.195089 0.980786 1.000000 -0.098017 0.995185 0.000000
0.000000 1.000000 1.000000 -0.098017 0.995185 0.000000
-0.382682 0.923880 -1.000000 -0.290283 0.956941 0.000000
-0.382682 0.923880 1.000000 -0.290283 0.956941 0.000000
-0.195089 0.980786 1.000000 -0.290283 0.956941 0.000000
0.000000 1.000000 -1.000000 0.000000 0.000000 -1.000000
0.195090 0.980785 -1.000000 0.000000 0.000000 -1.000000
-0.195089 0.980786 -1.000000 0.000000 0.000000 -1.000000
0.195090 0.980785 -1.000000 0.098017 0.995185 0.000000
0.382683 0.923880 -1.000000 0.290285 0.956940 0.000000
0.555570 0.831470 -1.000000 0.471397 0.881921 0.000000
0.707107 0.707107 -1.000000 0.634393 0.773010 0.000000
0.831470 0.555570 -1.000000 0.773010 0.634393 0.000000
0.923880 0.382683 -1.000000 0.881921 0.471397 0.000000
0.980785 0.195090 -1.000000 0.956940 0.290285 0.000000
1.000000 0.000000 -1.000000 0.995185 0.098017 0.000000
0.980785 -0.195090 -1.000000 0.995185 -0.098017 0.000000
-0.707106 0.707108 -1.000000 0.000000 0.000000 -1.000000
-0.707107 -0.707106 -1.000000 0.000000 0.000000 -1.000000
-0.923879 0.382684 -1.000000 0.000000 0.000000 -1.000000
0.831470 -0.555570 -1.000000 0.881921 -0.471396 0.000000
-1.000000 0.000001 1.000000 -0.995185 -0.098016 0.000000
0.555570 -0.831470 -1.000000 0.634393 -0.773010 0.000000
0.382683 -0.923880 -1.000000 0.471397 -0.881921 0.000000
-0.382682 0.923880 -1.000000 0.000000 -0.000000 -1.000000
0.195090 -0.980785 1.000000 -0.000000 0.000000 1.000000
-0.195091 -0.980785 1.000000 -0.000000 0.000000 1.000000
-0.195091 -0.980785 -1.000000 -0.098018 -0.995185 0.000000
-0.382684 -0.923879 -1.000000 -0.290285 -0.956940 0.000000
0.555570 -0.831470 -1.000000 0.000000 0.000000 -1.000000
0.382683 -0.923880 -1.000000 0.000000 0.000000 -1.000000
-0.382682 0.923880 1.000000 -0.471395 0.881922 0.000000
0.195090 -0.980785 1.000000 0.290284 -0.956940 0.000000
-0.923880 -0.382683 -1.000000 -0.881922 -0.471396 0.000000
-0.980785 -0.195089 -1.000000 -0.956941 -0.290284 0.000000
1.000000 0.000000 -1.000000 0.000000 0.000000 -1.000000
0.980785 -0.195090 -1.000000 0.000000 0.000000 -1.000000
0.923880 -0.382683 -1.000000 0.000000 0.000000 -1.000000
-0.980785 0.195091 -1.000000 -0.995185 0.098018 0.000000
-0.923879 0.382684 -1.000000 -0.956940 0.290286 0.000000
-0.923879 0.382684 1.000000 0.000000 0.000000 1.000000
-0.980785 0.195091 1.000000 0.000000 0.000000 1.000000
-1.000000 0.000001 1.000000 0.000000 0.000000 1.000000
-0.555571 -0.831469 1.000000 -0.471397 -0.881921 0.000000
-0.000000 -1.000000 1.000000 0.098017 -0.995185 0.000000
0.923880 -0.382683 1.000000 0.956940 -0.290285 0.000000
-0.382684 -0.923879 -1.000000 -0.000000 -0.000000 -1.000000
0.195090 -0.980785 -1.000000 -0.000000 -0.000000 -1.000000
-0.382682 0.923880 1.000000 0.000000 0.000000 1.000000
-0.707106 0.707108 1.000000 0.000000 0.000000 1.000000
-0.831470 -0.555570 1.000000 -0.773011 -0.634393 0.000000
-0.707107 -0.707106 1.000000 -0.634394 -0.773010 0.000000
-0.980785 -0.195089 1.000000 0.000000 0.000000 1.000000
-0.923880 -0.382683 1.000000 0.000000 0.000000 1.000000
-0.831470 -0.555570 1.000000 0.000000 0.000000 1.000000
-0.555571 -0.831469 1.000000 0.000000 -0.000000 1.000000
-0.831469 0.555571 1.000000 0.000000 0.000000 1.000000
-0.382684 -0.923879 1.000000 0.000000 0.000000 1.000000
0.000000 1.000000 1.000000 -0.000000 0.000000 1.000000
-0.707106 0.707108 1.000000 -0.773010 0.634394 0.000000
0.555570 -0.831470 1.000000 0.000000 -0.000000 1.000000
0.382683 -0.923880 1.000000 0.000000 -0.000000 1.000000
0.923880 -0.382683 1.000000 0.000000 0.000000 1.000000
-0.555569 0.831470 1.000000 0.000000 0.000000 1.000000
0.707107 -0.707107 1.000000 0.000000 0.000000 1.000000
0.980785 -0.195090 1.000000 0.000000 -0.000000 1.000000
0.707107 0.707107 1.000000 0.000000 0.000000 1.000000
0.923880 0.382683 1.000000 0.000000 0.000000 1.000000
0.831470 0.555570 1.000000 0.000000 0.000000 1.000000
0.980785 0.195090 1.000000 0.000000 0.000000 1.000000
1.000000 0.000000 1.000000 0.000000 -0.000000 1.000000
0.555570 0.831470 1.000000 -0.000000 -0.000000 1.000000
0.707107 -0.707107 1.000000 0.773010 -0.634393 0.000000
0.000000 1.000000 -1.000000 -0.098017 0.995185 0.000000
-0.195089 0.980786 -1.000000 -0.290283 0.956941 0.000000
0.382683 0.923880 -1.000000 0.000000 0.000000 -1.000000
0.555570 0.831470 -1.000000 0.000000 0.000000 -1.000000
0.707107 0.707107 -1.000000 0.000000 0.000000 -1.000000
0.831470 0.555570 -1.000000 0.000000 0.000000 -1.000000
0.923880 0.382683 -1.000000 0.000000 0.000000 -1.000000
0.980785 0.195090 -1.000000 0.000000 0.000000 -1.000000
-0.555569 0.831470 1.000000 -0.634392 0.773011 0.000000
0.831470 -0.555570 -1.000000 0.000000 0.000000 -1.000000
0.707107 -0.707107 -1.000000 0.000000 0.000000 -1.000000
-1.000000 0.000001 -1.000000 -0.000000 0.000000 -1.000000
-0.980785 0.195091 -1.000000 -0.000000 0.000000 -1.000000
-0.980785 -0.195089 -1.000000 -0.000000 0.000000 -1.000000
-0.195091 -0.980785 -1.000000 0.000000 0.000000 -1.000000
-0.000000 -1.000000 -1.000000 0.000000 0.000000 -1.000000
-0.555571 -0.831469 -1.000000 0.000000 0.000000 -1.000000
-0.831470 -0.555570 -1.000000 0.000000 0.000000 -1.000000
-0.923880 -0.382683 -1.000000 0.000000 0.000000 -1.000000
-0.831469 0.555571 1.000000 -0.881921 0.471398 0.000000
-0.555569 0.831470 -1.000000 -0.000000 0.000000 -1.000000
0.831470 -0.555570 1.000000 0.000000 0.000000 1.000000
-0.831469 0.555571 -1.000000 -0.000000 0.000000 -1.000000
-0.000000 -1.000000 1.000000 0.000000 0.000000 1.000000
-0.707107 -0.707106 1.000000 0.000000 0.000000 1.000000
3 0 1 2
3 3 4 5
3 6 7 8
3 9 10 11
3 12 13 14
3 15 16 17
3 18 19 20
3 21 22 23
3 24 25 26
3 27 28 29
3 30 31 32
3 33 34 35
3 36 37 38
3 39 40 41
3 42 43 44
3 45 46 47
3 48 49 50
3 51 52 53
3 54 55 56
3 57 58 59
3 60 61 62
3 63 64 65
3 66 67 68
3 69 70 71
3 72 73 74
3 75 76 77
3 78 79 80
3 81 82 83
3 84 85 86
3 87 88 89
3 90 91 92
3 93 94 95
3 96 97 98
3 99 100 101
3 102 0 2
3 103 3 5
3 104 6 8
3 105 9 11
3 106 12 14
3 107 15 17
3 108 18 20
3 109 21 23
3 110 24 26
3 111 112 113
3 114 30 32
3 70 115 71
3 116 36 38
3 117 39 41
3 118 112 111
3 119 90 120
3 121 48 50
3 122 51 53
3 123 124 101
3 88 125 89
3 43 126 44
3 127 63 65
3 128 66 68
3 129 130 131
3 132 72 74
3 133 75 77
3 134 135 136
3 55 137 56
3 46 138 47
3 28 139 29
3 136 90 92
3 140 112 141
3 92 142 143
3 143 134 92
3 61 144 62
3 134 136 92
3 58 145 59
3 136 146 90
3 146 147 90
3 147 148 90
3 90 148 149
3 143 150 134
3 149 151 120
3 91 152 92
3 90 149 120
3 82 153 83
3 154 119 155
3 119 154 156
3 142 157 143
3 154 158 156
3 159 119 156
3 160 161 162
3 160 163 161
3 164 119 159
3 163 119 164
3 160 119 163
3 165 90 160
3 34 166 35
3 167 93 95
3 168 96 98
3 100 169 101
3 169 170 101
3 170 171 101
3 171 172 101
3 172 173 101
3 173 174 101
3 101 174 131
3 85 175 86
3 174 129 131
3 131 176 101
3 176 177 101
3 178 179 180
3 177 123 101
3 179 113 180
3 181 141 182
3 124 141 112
3 90 119 160
3 112 140 183
3 181 140 141
3 118 101 124
3 180 184 185
3 112 118 124
3 79 186 80
3 113 184 180
3 187 118 111
3 158 188 156
3 189 111 113
3 120 190 119
3 184 113 112
3 148 191 149
